<?xml version="1.0" encoding="UTF-8"?>
<svg width="200px" height="104px" viewBox="0 0 200 104" version="1.1" xmlns="http://www.w3.org/2000/svg" xmlns:xlink="http://www.w3.org/1999/xlink">
    <!-- Generator: Sketch 49.3 (51167) - http://www.bohemiancoding.com/sketch -->
    <title>Group</title>
    <desc>Created with Sketch.</desc>
    <defs></defs>
    <g id="Design-Source" stroke="none" stroke-width="1" fill="none" fill-rule="evenodd">
        <g id="concept-3" transform="translate(-64.000000, -64.000000)">
            <g id="Group" transform="translate(64.000000, 64.000000)">
                <path d="M0.780821918,97.4277017 L1.76712329,97.2907154 C1.80821918,97.9619482 1.91780822,98.304414 2.20547945,98.7016743 C2.67123288,99.3318113 3.52054795,99.6879756 4.57534247,99.6879756 C6.2739726,99.6879756 7.30136986,98.8797565 7.30136986,97.5235921 C7.30136986,96.8249619 7.02739726,96.304414 6.47945205,96.0030441 C6.01369863,95.7427702 5.82191781,95.674277 4.24657534,95.3455099 C3.36986301,95.1537291 2.87671233,95.0030441 2.42465753,94.7701674 C1.54794521,94.304414 1.09589041,93.564688 1.09589041,92.6057839 C1.09589041,90.934551 2.43835616,89.8386606 4.50684932,89.8386606 C5.80821918,89.8386606 6.83561644,90.2633181 7.43835616,91.0715373 C7.73972603,91.4687976 7.87671233,91.7975647 8.01369863,92.4824962 L7.06849315,92.6331811 C6.97260274,92.0578387 6.84931507,91.7838661 6.57534247,91.4550989 C6.12328767,90.9071537 5.39726027,90.6194825 4.47945205,90.6194825 C3,90.6194825 1.97260274,91.4277017 1.97260274,92.5920852 C1.97260274,93.3455099 2.38356164,93.8797565 3.21917808,94.2085236 C3.61643836,94.3729072 3.61643836,94.3729072 5.19178082,94.7016743 C7.32876712,95.1537291 8.19178082,95.9619482 8.19178082,97.5098935 C8.19178082,99.3866058 6.87671233,100.468798 4.60273973,100.468798 C3.10958904,100.468798 1.98630137,100.003044 1.38356164,99.1537291 C1.04109589,98.674277 0.904109589,98.2770167 0.780821918,97.4277017 Z M15.4520548,90.0030441 L16.6027397,90.0030441 L16.6027397,91.1126332 L15.4520548,91.1126332 L15.4520548,90.0030441 Z M15.5068493,93.0304414 L16.5479452,93.0304414 C16.4794521,93.4961948 16.4520548,93.8660578 16.4520548,94.5235921 L16.4520548,98.8112633 C16.4520548,99.4003044 16.4794521,99.7564688 16.5479452,100.290715 L15.5068493,100.290715 C15.5753425,99.7153729 15.6027397,99.3318113 15.6027397,98.8112633 L15.6027397,94.5098935 C15.6027397,93.8934551 15.5753425,93.5098935 15.5068493,93.0304414 Z M24.9589345,94.3591304 C25.0548206,94.1125956 25.1781082,93.9345221 25.4246575,93.6605784 C25.890411,93.1537291 26.5616438,92.8797565 27.3835616,92.8797565 C28.1506849,92.8797565 28.739726,93.1126332 29.1369863,93.5920852 C29.3287671,93.8249619 29.4109589,94.0030441 29.5342466,94.4414003 C30.1643836,93.3455099 30.9178082,92.8797565 32.0684932,92.8797565 C33.6575342,92.8797565 34.4520548,93.7290715 34.4520548,95.414003 L34.4520548,98.8249619 C34.4520548,99.4961948 34.4794521,99.8386606 34.5479452,100.290715 L33.5068493,100.290715 C33.5753425,99.8112633 33.6027397,99.4824962 33.6027397,98.8112633 L33.6027397,95.5372907 C33.6027397,94.194825 33.0958904,93.6057839 31.9315068,93.6057839 C30.7260274,93.6057839 29.7123288,94.7564688 29.7123288,96.1263318 L29.7123288,98.8249619 C29.7123288,99.4824962 29.739726,99.8386606 29.8082192,100.290715 L28.7808219,100.290715 C28.8493151,99.8386606 28.8767123,99.4824962 28.8767123,98.8112633 L28.8767123,95.5372907 C28.8767123,94.2907154 28.3013699,93.6057839 27.2739726,93.6057839 C26.5068493,93.6057839 25.8219178,94.0030441 25.3972603,94.6879756 C25.1506849,95.0852359 24.9863014,95.6605784 24.9863014,96.1263318 L24.9863014,98.8112633 C24.9863014,99.414003 25.0136986,99.7564688 25.0821918,100.290715 L24.0684932,100.290715 C24.1369863,99.8112633 24.1643836,99.414003 24.1643836,98.8112633 L24.1643836,94.5098935 C24.1643836,93.8660578 24.1369863,93.5098935 24.0684932,93.0304414 L24.9863014,93.0304414 L24.9863014,93.8523592 C24.9863014,93.9703133 24.9863014,94.0381112 24.9623083,94.3196774 L24.9589345,94.3591304 Z M42.9178082,93.0304414 L42.9178082,93.7838661 C42.9178082,94.0167428 42.9041096,94.194825 42.8767123,94.5098935 C43.0410959,94.1811263 43.1643836,94.0304414 43.3972603,93.7975647 C44.0273973,93.194825 44.7534247,92.9071537 45.6712329,92.9071537 C47.7260274,92.9071537 48.9726027,94.3318113 48.9726027,96.674277 C48.9726027,98.9619482 47.6986301,100.427702 45.6849315,100.427702 C44.4520548,100.427702 43.4246575,99.8523592 42.8767123,98.8386606 C42.9178082,99.2222222 42.9315068,99.5235921 42.9315068,99.8934551 L42.9315068,101.74277 C42.9315068,102.34551 42.9589041,102.729072 43.0273973,103.222222 L42.0136986,103.222222 C42.0821918,102.701674 42.109589,102.290715 42.109589,101.756469 L42.109589,94.5372907 C42.109589,93.9071537 42.0821918,93.5509893 42.0136986,93.0304414 L42.9178082,93.0304414 Z M45.6438356,99.7016743 C47.1780822,99.7016743 48.109589,98.564688 48.109589,96.6879756 C48.109589,94.7564688 47.2191781,93.6468798 45.6438356,93.6468798 C44,93.6468798 42.9315068,94.8386606 42.9315068,96.6879756 C42.9315068,97.6331811 43.2328767,98.4687976 43.739726,98.9619482 C44.2328767,99.4414003 44.9041096,99.7016743 45.6438356,99.7016743 Z M56.1232877,90.0030441 L57.1643836,90.0030441 C57.0958904,90.4824962 57.0684932,90.8386606 57.0684932,91.4961948 L57.0684932,98.8112633 C57.0684932,99.414003 57.0958904,99.7564688 57.1643836,100.290715 L56.1232877,100.290715 C56.1917808,99.8112633 56.2191781,99.3866058 56.2191781,98.8112633 L56.2191781,91.4824962 C56.2191781,90.8523592 56.1917808,90.4824962 56.1232877,90.0030441 Z M70.8630137,96.7427702 L65.1506849,96.7427702 C65.1917808,97.6879756 65.3561644,98.2770167 65.7123288,98.7701674 C66.1780822,99.4003044 66.8767123,99.7427702 67.6986301,99.7427702 C68.4520548,99.7427702 69.109589,99.4550989 69.5479452,98.934551 C69.7534247,98.7016743 69.8493151,98.5235921 70.0136986,98.0852359 L70.8219178,98.4277017 C70.5342466,98.9893455 70.369863,99.2359209 70.0821918,99.5372907 C69.4657534,100.14003 68.6438356,100.468798 67.6849315,100.468798 C65.6164384,100.468798 64.3013699,99.0030441 64.3013699,96.674277 C64.3013699,94.3729072 65.5890411,92.8660578 67.5753425,92.8660578 C69.260274,92.8660578 70.4657534,93.934551 70.7534247,95.6468798 C70.7808219,95.7701674 70.8082192,96.1400304 70.8630137,96.7427702 Z M65.1917808,96.0167428 L69.9589041,96.0167428 C69.890411,95.3455099 69.7534247,94.9208524 69.4383562,94.4961948 C69.0136986,93.9208524 68.3287671,93.5783866 67.6027397,93.5783866 C66.2739726,93.5783866 65.4246575,94.4414003 65.1917808,96.0167428 Z M88.0273973,90.0030441 L89.1780822,90.0030441 L89.1780822,91.1126332 L88.0273973,91.1126332 L88.0273973,90.0030441 Z M88.0821918,93.0304414 L89.1232877,93.0304414 C89.0547945,93.4961948 89.0273973,93.8660578 89.0273973,94.5235921 L89.0273973,98.8112633 C89.0273973,99.4003044 89.0547945,99.7564688 89.1232877,100.290715 L88.0821918,100.290715 C88.1506849,99.7153729 88.1780822,99.3318113 88.1780822,98.8112633 L88.1780822,94.5098935 C88.1780822,93.8934551 88.1506849,93.5098935 88.0821918,93.0304414 Z M96.2465753,98.3455099 L97.1780822,98.1811263 C97.260274,98.6879756 97.3835616,98.9482496 97.6575342,99.2085236 C98.0136986,99.5372907 98.5890411,99.7153729 99.3013699,99.7153729 C100.547945,99.7153729 101.328767,99.1811263 101.328767,98.3318113 C101.328767,97.9071537 101.178082,97.6057839 100.890411,97.4277017 C100.547945,97.2222222 100.205479,97.1126332 99.2328767,96.9071537 C98.109589,96.674277 97.630137,96.5098935 97.1780822,96.1674277 C96.7808219,95.8797565 96.5616438,95.4003044 96.5616438,94.8523592 C96.5616438,94.3729072 96.7671233,93.9071537 97.1369863,93.5509893 C97.6027397,93.0989346 98.3013699,92.8660578 99.1917808,92.8660578 C100.054795,92.8660578 100.753425,93.0715373 101.219178,93.4824962 C101.575342,93.7838661 101.753425,94.0989346 101.931507,94.7016743 L101.054795,94.8660578 C100.972603,94.4824962 100.890411,94.3181126 100.69863,94.1126332 C100.356164,93.7564688 99.8356164,93.564688 99.2054795,93.564688 C98.1506849,93.564688 97.4109589,94.1126332 97.4109589,94.8797565 C97.4109589,95.2085236 97.5890411,95.5098935 97.890411,95.674277 C98.2054795,95.8523592 98.5890411,95.9756469 99.4383562,96.1537291 C100.808219,96.4687976 101.246575,96.6194825 101.630137,96.9619482 C102,97.304414 102.191781,97.7564688 102.191781,98.2907154 C102.191781,99.6194825 101.068493,100.4414 99.2465753,100.4414 C98.0821918,100.4414 97.1506849,100.071537 96.6712329,99.414003 C96.4657534,99.1400304 96.369863,98.9071537 96.2465753,98.3455099 Z M120.219178,93.0304414 L120.219178,93.7838661 C120.219178,94.0167428 120.205479,94.194825 120.178082,94.5098935 C120.342466,94.1811263 120.465753,94.0304414 120.69863,93.7975647 C121.328767,93.194825 122.054795,92.9071537 122.972603,92.9071537 C125.027397,92.9071537 126.273973,94.3318113 126.273973,96.674277 C126.273973,98.9619482 125,100.427702 122.986301,100.427702 C121.753425,100.427702 120.726027,99.8523592 120.178082,98.8386606 C120.219178,99.2222222 120.232877,99.5235921 120.232877,99.8934551 L120.232877,101.74277 C120.232877,102.34551 120.260274,102.729072 120.328767,103.222222 L119.315068,103.222222 C119.383562,102.701674 119.410959,102.290715 119.410959,101.756469 L119.410959,94.5372907 C119.410959,93.9071537 119.383562,93.5509893 119.315068,93.0304414 L120.219178,93.0304414 Z M122.945205,99.7016743 C124.479452,99.7016743 125.410959,98.564688 125.410959,96.6879756 C125.410959,94.7564688 124.520548,93.6468798 122.945205,93.6468798 C121.30137,93.6468798 120.232877,94.8386606 120.232877,96.6879756 C120.232877,97.6331811 120.534247,98.4687976 121.041096,98.9619482 C121.534247,99.4414003 122.205479,99.7016743 122.945205,99.7016743 Z M139.643836,96.7427702 L133.931507,96.7427702 C133.972603,97.6879756 134.136986,98.2770167 134.493151,98.7701674 C134.958904,99.4003044 135.657534,99.7427702 136.479452,99.7427702 C137.232877,99.7427702 137.890411,99.4550989 138.328767,98.934551 C138.534247,98.7016743 138.630137,98.5235921 138.794521,98.0852359 L139.60274,98.4277017 C139.315068,98.9893455 139.150685,99.2359209 138.863014,99.5372907 C138.246575,100.14003 137.424658,100.468798 136.465753,100.468798 C134.39726,100.468798 133.082192,99.0030441 133.082192,96.674277 C133.082192,94.3729072 134.369863,92.8660578 136.356164,92.8660578 C138.041096,92.8660578 139.246575,93.934551 139.534247,95.6468798 C139.561644,95.7701674 139.589041,96.1400304 139.643836,96.7427702 Z M133.972603,96.0167428 L138.739726,96.0167428 C138.671233,95.3455099 138.534247,94.9208524 138.219178,94.4961948 C137.794521,93.9208524 137.109589,93.5783866 136.383562,93.5783866 C135.054795,93.5783866 134.205479,94.4414003 133.972603,96.0167428 Z M151.260274,93.0304414 L151,93.9071537 C150.493151,93.7427702 150.260274,93.7016743 149.931507,93.7016743 C149.219178,93.7016743 148.657534,93.9893455 148.219178,94.5783866 C147.890411,95.0167428 147.780822,95.3455099 147.726027,95.9619482 L147.726027,98.8112633 C147.726027,99.4003044 147.753425,99.7701674 147.821918,100.290715 L146.780822,100.290715 C146.849315,99.7016743 146.876712,99.3181126 146.876712,98.8112633 L146.876712,94.5098935 C146.876712,93.8797565 146.849315,93.5098935 146.780822,93.0304414 L147.726027,93.0304414 L147.726027,94.2633181 C147.945205,93.8934551 148.150685,93.6468798 148.383562,93.4550989 C148.890411,93.0715373 149.39726,92.9071537 150.136986,92.9071537 C150.465753,92.9071537 150.726027,92.934551 151.260274,93.0304414 Z M158.90411,93.7564688 L158.342466,93.7564688 C157.849315,93.7564688 157.520548,93.7838661 157.09589,93.8386606 L157.09589,92.9482496 C157.465753,93.0167428 157.753425,93.0304414 158.342466,93.0304414 L158.90411,93.0304414 L158.90411,92.2085236 C158.90411,91.3455099 158.986301,90.9619482 159.260274,90.5783866 C159.575342,90.1400304 160.136986,89.8934551 160.876712,89.8934551 C161.410959,89.8934551 161.808219,89.9756469 162.287671,90.1674277 L162,90.9482496 C161.643836,90.7153729 161.315068,90.6194825 160.890411,90.6194825 C160.438356,90.6194825 160.123288,90.7564688 159.945205,91.0167428 C159.794521,91.2496195 159.739726,91.5372907 159.739726,92.2222222 L159.739726,93.0304414 L160.438356,93.0304414 C161.068493,93.0304414 161.369863,93.0167428 161.863014,92.9482496 L161.863014,93.8386606 C161.39726,93.7701674 161.109589,93.7564688 160.424658,93.7564688 L159.739726,93.7564688 L159.739726,98.8112633 C159.739726,99.414003 159.767123,99.7838661 159.835616,100.290715 L158.808219,100.290715 C158.876712,99.7427702 158.90411,99.3318113 158.90411,98.8112633 L158.90411,93.7564688 Z M175.136986,96.7427702 L169.424658,96.7427702 C169.465753,97.6879756 169.630137,98.2770167 169.986301,98.7701674 C170.452055,99.4003044 171.150685,99.7427702 171.972603,99.7427702 C172.726027,99.7427702 173.383562,99.4550989 173.821918,98.934551 C174.027397,98.7016743 174.123288,98.5235921 174.287671,98.0852359 L175.09589,98.4277017 C174.808219,98.9893455 174.643836,99.2359209 174.356164,99.5372907 C173.739726,100.14003 172.917808,100.468798 171.958904,100.468798 C169.890411,100.468798 168.575342,99.0030441 168.575342,96.674277 C168.575342,94.3729072 169.863014,92.8660578 171.849315,92.8660578 C173.534247,92.8660578 174.739726,93.934551 175.027397,95.6468798 C175.054795,95.7701674 175.082192,96.1400304 175.136986,96.7427702 Z M169.465753,96.0167428 L174.232877,96.0167428 C174.164384,95.3455099 174.027397,94.9208524 173.712329,94.4961948 C173.287671,93.9208524 172.60274,93.5783866 171.876712,93.5783866 C170.547945,93.5783866 169.69863,94.4414003 169.465753,96.0167428 Z M188.287671,94.9071537 L187.479452,95.1811263 C187.068493,94.0852359 186.39726,93.5783866 185.342466,93.5783866 C183.780822,93.5783866 182.794521,94.7838661 182.794521,96.674277 C182.794521,98.5235921 183.808219,99.7016743 185.410959,99.7016743 C186.520548,99.7016743 187.219178,99.1811263 187.547945,98.0852359 L188.383562,98.3455099 C188.191781,98.8112633 188.054795,99.0715373 187.821918,99.3592085 C187.246575,100.085236 186.410959,100.455099 185.356164,100.455099 C183.260274,100.455099 181.931507,98.9893455 181.931507,96.6879756 C181.931507,94.3729072 183.246575,92.8523592 185.273973,92.8523592 C186.356164,92.8523592 187.232877,93.2633181 187.808219,94.04414 C188,94.304414 188.123288,94.5098935 188.287671,94.9071537 Z M196.342466,91.0167428 L197.383562,91.0167428 C197.315068,91.4277017 197.287671,91.9071537 197.287671,92.4824962 L197.287671,93.0304414 L197.958904,93.0304414 C198.60274,93.0304414 198.90411,93.0167428 199.369863,92.9482496 L199.369863,93.8386606 C198.931507,93.7701674 198.589041,93.7564688 197.958904,93.7564688 L197.287671,93.7564688 L197.287671,98.674277 C197.287671,99.0715373 197.342466,99.2907154 197.465753,99.4277017 C197.616438,99.5920852 197.849315,99.674277 198.123288,99.674277 C198.493151,99.674277 198.780822,99.5783866 199.246575,99.2907154 L199.547945,100.098935 C198.986301,100.331811 198.534247,100.427702 198.013699,100.427702 C197.479452,100.427702 197.027397,100.277017 196.780822,100.003044 C196.534247,99.7427702 196.438356,99.3592085 196.438356,98.7427702 L196.438356,93.7564688 L195.890411,93.7564688 C195.424658,93.7564688 195.09589,93.7838661 194.657534,93.8386606 L194.657534,92.9482496 C195.027397,93.0167428 195.30137,93.0304414 195.890411,93.0304414 L196.438356,93.0304414 L196.438356,92.4824962 C196.438356,91.934551 196.410959,91.4550989 196.342466,91.0167428 Z" id="Simple-is-perfect" fill="#FFFFFF"></path>
                <path d="M26.3561644,79.500761 C26.3561644,79.8295298 26.5570756,79.9939117 26.9589041,79.9939117 L26.9589041,80.4870624 L22.739726,80.4870624 L22.739726,79.9939117 C22.8675805,79.9939117 22.9817347,79.9528162 23.0821918,79.870624 C23.1826489,79.7884319 23.2328767,79.6651454 23.2328767,79.500761 L23.2328767,68.5966514 L18.7123288,68.5966514 C18.5479444,68.5966514 18.3881286,68.6423131 18.2328767,68.7336377 C18.0776248,68.8249624 18,68.9984767 18,69.2541857 L17.5068493,69.2541857 L17.5068493,65.4185693 L18,65.4185693 C18,65.6742783 18.0776248,65.8477925 18.2328767,65.9391172 C18.3881286,66.0304419 18.5479444,66.0761035 18.7123288,66.0761035 L30.8767123,66.0761035 C31.0410967,66.0761035 31.2009125,66.0304419 31.3561644,65.9391172 C31.5114163,65.8477925 31.5890411,65.6742783 31.5890411,65.4185693 L32.0821918,65.4185693 L32.0821918,69.2541857 L31.5890411,69.2541857 C31.5890411,68.9984767 31.5114163,68.8249624 31.3561644,68.7336377 C31.2009125,68.6423131 31.0410967,68.5966514 30.8767123,68.5966514 L26.3561644,68.5966514 L26.3561644,79.500761 Z M48.2465753,67.0624049 C48.2465753,66.7336361 48.0456641,66.5692542 47.6438356,66.5692542 L47.6438356,66.0761035 L51.8630137,66.0761035 L51.8630137,66.5692542 C51.7351592,66.5692542 51.6210051,66.6103497 51.5205479,66.6925419 C51.4200908,66.774734 51.369863,66.8980205 51.369863,67.0624049 L51.369863,79.500761 C51.369863,79.6651454 51.4200908,79.7884319 51.5205479,79.870624 C51.6210051,79.9528162 51.7351592,79.9939117 51.8630137,79.9939117 L51.8630137,80.4870624 L47.6438356,80.4870624 L47.6438356,79.9939117 C48.0456641,79.9939117 48.2465753,79.8295298 48.2465753,79.500761 L48.2465753,74.3500761 L39.4246575,74.3500761 L39.4246575,79.500761 C39.4246575,79.6651454 39.4748853,79.7884319 39.5753425,79.870624 C39.6757996,79.9528162 39.7899537,79.9939117 39.9178082,79.9939117 L39.9178082,80.4870624 L35.7808219,80.4870624 L35.7808219,79.9939117 C36.1278556,79.9939117 36.3013699,79.8295298 36.3013699,79.500761 L36.3013699,67.0624049 C36.3013699,66.7336361 36.1278556,66.5692542 35.7808219,66.5692542 L35.7808219,66.0761035 L39.9178082,66.0761035 L39.9178082,66.5692542 C39.7899537,66.5692542 39.6757996,66.6103497 39.5753425,66.6925419 C39.4748853,66.774734 39.4246575,66.8980205 39.4246575,67.0624049 L39.4246575,71.7199391 L48.2465753,71.7199391 L48.2465753,67.0624049 Z M56.7671233,79.9939117 C57.2420115,79.9939117 57.4794521,79.8295298 57.4794521,79.500761 L57.4794521,67.0624049 C57.4794521,66.7336361 57.2420115,66.5692542 56.7671233,66.5692542 L56.7671233,66.0761035 L61.3150685,66.0761035 L61.3150685,66.5692542 C60.8401803,66.5692542 60.6027397,66.7336361 60.6027397,67.0624049 L60.6027397,79.500761 C60.6027397,79.8295298 60.8401803,79.9939117 61.3150685,79.9939117 L61.3150685,80.4870624 L56.7671233,80.4870624 L56.7671233,79.9939117 Z M66.109589,79.9939117 C66.4566227,79.9939117 66.630137,79.8295298 66.630137,79.500761 L66.630137,67.0624049 C66.630137,66.7336361 66.4566227,66.5692542 66.109589,66.5692542 L66.109589,66.0761035 L70.7945205,66.0761035 L70.7945205,66.5692542 C70.6484011,66.5692542 70.5753425,66.6605775 70.5753425,66.8432268 C70.5753425,66.9893462 70.757989,67.2450514 71.1232877,67.6103501 L78.9863014,75.7747336 L78.9863014,67.0624049 C78.9863014,66.7336361 78.7488608,66.5692542 78.2739726,66.5692542 L78.2739726,66.0761035 L82.4109589,66.0761035 L82.4109589,66.5692542 C82.0639252,66.5692542 81.890411,66.7336361 81.890411,67.0624049 L81.890411,79.500761 C81.890411,79.8295298 82.0639252,79.9939117 82.4109589,79.9939117 L82.4109589,80.4870624 L77.9726027,80.4870624 L77.9726027,79.9939117 C78.2100468,79.9939117 78.3287671,79.9117208 78.3287671,79.7473364 C78.3287671,79.6194819 78.1826499,79.4094383 77.890411,79.1171994 L69.5342466,70.4048706 L69.5342466,79.500761 C69.5342466,79.8295298 69.7442901,79.9939117 70.1643836,79.9939117 L70.1643836,80.4870624 L66.109589,80.4870624 L66.109589,79.9939117 Z M90.6575342,79.500761 C90.6575342,79.6651454 90.7123282,79.7884319 90.8219178,79.870624 C90.9315074,79.9528162 91.05936,79.9939117 91.2054795,79.9939117 L91.2054795,80.4870624 L86.9315068,80.4870624 L86.9315068,79.9939117 C87.3333353,79.9939117 87.5342466,79.8295298 87.5342466,79.500761 L87.5342466,67.0624049 C87.5342466,66.7336361 87.3333353,66.5692542 86.9315068,66.5692542 L86.9315068,66.0761035 L91.2054795,66.0761035 L91.2054795,66.5692542 C91.05936,66.5692542 90.9315074,66.6103497 90.8219178,66.6925419 C90.7123282,66.774734 90.6575342,66.8980205 90.6575342,67.0624049 L90.6575342,72.2678843 L96.3287671,67.8021309 C96.5844762,67.5829517 96.7853874,67.4048713 96.9315068,67.2678843 C97.0776263,67.1308973 97.1506849,67.0167432 97.1506849,66.9254186 C97.1506849,66.797564 97.1095895,66.7062408 97.0273973,66.651446 C96.9452051,66.5966512 96.8493156,66.5692542 96.739726,66.5692542 L96.739726,66.0761035 L102.493151,66.0761035 L102.493151,66.5692542 C102.164382,66.5692542 101.835618,66.7062391 101.506849,66.9802131 L95.2054795,71.9939117 L100.958904,78.651446 C101.196348,78.9254199 101.474884,79.1948236 101.794521,79.4596651 C102.114157,79.7245067 102.429222,79.9025871 102.739726,79.9939117 L102.739726,80.4870624 L97.6712329,80.4870624 L97.6712329,79.9939117 C97.908677,79.9939117 98.0273973,79.9299854 98.0273973,79.8021309 C98.0273973,79.7108062 97.8995447,79.509895 97.6438356,79.1993912 L92.9589041,73.8021309 L90.6575342,75.5829528 L90.6575342,79.500761 Z M113.123288,79.500761 C113.123288,79.8295298 113.324199,79.9939117 113.726027,79.9939117 L113.726027,80.4870624 L109.506849,80.4870624 L109.506849,79.9939117 C109.634704,79.9939117 109.748858,79.9528162 109.849315,79.870624 C109.949772,79.7884319 110,79.6651454 110,79.500761 L110,68.5966514 L105.479452,68.5966514 C105.315068,68.5966514 105.155252,68.6423131 105,68.7336377 C104.844748,68.8249624 104.767123,68.9984767 104.767123,69.2541857 L104.273973,69.2541857 L104.273973,65.4185693 L104.767123,65.4185693 C104.767123,65.6742783 104.844748,65.8477925 105,65.9391172 C105.155252,66.0304419 105.315068,66.0761035 105.479452,66.0761035 L117.643836,66.0761035 C117.80822,66.0761035 117.968036,66.0304419 118.123288,65.9391172 C118.27854,65.8477925 118.356164,65.6742783 118.356164,65.4185693 L118.849315,65.4185693 L118.849315,69.2541857 L118.356164,69.2541857 C118.356164,68.9984767 118.27854,68.8249624 118.123288,68.7336377 C117.968036,68.6423131 117.80822,68.5966514 117.643836,68.5966514 L113.123288,68.5966514 L113.123288,79.500761 Z M130.60274,68.4322679 C129.908672,68.4322679 129.214615,68.5418558 128.520548,68.761035 C127.826481,68.9802142 127.200916,69.2952795 126.643836,69.7062405 C126.086755,70.1172014 125.634705,70.6240457 125.287671,71.2267884 C124.940638,71.8295312 124.767123,72.5144558 124.767123,73.281583 C124.767123,74.0487101 124.940638,74.7336347 125.287671,75.3363775 C125.634705,75.9391202 126.086755,76.4459645 126.643836,76.8569254 C127.200916,77.2678864 127.826481,77.5829517 128.520548,77.8021309 C129.214615,78.0213101 129.908672,78.130898 130.60274,78.130898 C131.296807,78.130898 131.990864,78.0213101 132.684932,77.8021309 C133.378999,77.5829517 134.004563,77.2678864 134.561644,76.8569254 C135.118724,76.4459645 135.570775,75.9391202 135.917808,75.3363775 C136.264842,74.7336347 136.438356,74.0487101 136.438356,73.281583 C136.438356,72.5144558 136.264842,71.8295312 135.917808,71.2267884 C135.570775,70.6240457 135.118724,70.1172014 134.561644,69.7062405 C134.004563,69.2952795 133.378999,68.9802142 132.684932,68.761035 C131.990864,68.5418558 131.296807,68.4322679 130.60274,68.4322679 Z M130.60274,65.9117199 C131.607311,65.9117199 132.630132,66.0624034 133.671233,66.3637747 C134.712334,66.6651461 135.662096,67.1171964 136.520548,67.7199391 C137.379,68.3226819 138.082189,69.0852313 138.630137,70.0076104 C139.178085,70.9299894 139.452055,72.0213027 139.452055,73.281583 C139.452055,74.5418632 139.178085,75.6331765 138.630137,76.5555556 C138.082189,77.4779346 137.379,78.240484 136.520548,78.8432268 C135.662096,79.4459695 134.712334,79.8843213 133.671233,80.1582953 C132.630132,80.4322693 131.607311,80.5692542 130.60274,80.5692542 C129.598168,80.5692542 128.575348,80.4322693 127.534247,80.1582953 C126.493145,79.8843213 125.543383,79.4459695 124.684932,78.8432268 C123.82648,78.240484 123.12329,77.4779346 122.575342,76.5555556 C122.027395,75.6331765 121.753425,74.5418632 121.753425,73.281583 C121.753425,72.0213027 122.027395,70.9299894 122.575342,70.0076104 C123.12329,69.0852313 123.82648,68.3226819 124.684932,67.7199391 C125.543383,67.1171964 126.493145,66.6651461 127.534247,66.3637747 C128.575348,66.0624034 129.598168,65.9117199 130.60274,65.9117199 Z M151.287671,78.130898 C152.146123,78.130898 152.894974,78.0578394 153.534247,77.9117199 C154.173519,77.7656005 154.703194,77.5053291 155.123288,77.130898 C155.543381,76.7564669 155.858446,76.258755 156.068493,75.6377473 C156.27854,75.0167397 156.383562,74.2313594 156.383562,73.281583 C156.383562,72.3318065 156.27854,71.5464262 156.068493,70.9254186 C155.858446,70.3044109 155.543381,69.806699 155.123288,69.4322679 C154.703194,69.0578368 154.173519,68.7975654 153.534247,68.651446 C152.894974,68.5053265 152.146123,68.4322679 151.287671,68.4322679 L147.041096,68.4322679 L147.041096,78.130898 L151.287671,78.130898 Z M152.383562,66.0761035 C153.388133,66.0761035 154.324197,66.2222208 155.191781,66.5144597 C156.059365,66.8066986 156.812782,67.2496165 157.452055,67.8432268 C158.091327,68.4368371 158.593605,69.185688 158.958904,70.0898021 C159.324203,70.9939162 159.506849,72.0578325 159.506849,73.281583 C159.506849,74.5053334 159.324203,75.5692497 158.958904,76.4733638 C158.593605,77.3774779 158.091327,78.1263288 157.452055,78.7199391 C156.812782,79.3135494 156.059365,79.7564673 155.191781,80.0487062 C154.324197,80.3409451 153.388133,80.4870624 152.383562,80.4870624 L143.287671,80.4870624 L143.287671,79.9939117 C143.707765,79.9939117 143.917808,79.8295298 143.917808,79.500761 L143.917808,67.0624049 C143.917808,66.7336361 143.707765,66.5692542 143.287671,66.5692542 L143.287671,66.0761035 L152.383562,66.0761035 Z M171.69863,68.4322679 C171.004563,68.4322679 170.310506,68.5418558 169.616438,68.761035 C168.922371,68.9802142 168.296806,69.2952795 167.739726,69.7062405 C167.182646,70.1172014 166.730595,70.6240457 166.383562,71.2267884 C166.036528,71.8295312 165.863014,72.5144558 165.863014,73.281583 C165.863014,74.0487101 166.036528,74.7336347 166.383562,75.3363775 C166.730595,75.9391202 167.182646,76.4459645 167.739726,76.8569254 C168.296806,77.2678864 168.922371,77.5829517 169.616438,77.8021309 C170.310506,78.0213101 171.004563,78.130898 171.69863,78.130898 C172.392698,78.130898 173.086755,78.0213101 173.780822,77.8021309 C174.474889,77.5829517 175.100454,77.2678864 175.657534,76.8569254 C176.214615,76.4459645 176.666665,75.9391202 177.013699,75.3363775 C177.360732,74.7336347 177.534247,74.0487101 177.534247,73.281583 C177.534247,72.5144558 177.360732,71.8295312 177.013699,71.2267884 C176.666665,70.6240457 176.214615,70.1172014 175.657534,69.7062405 C175.100454,69.2952795 174.474889,68.9802142 173.780822,68.761035 C173.086755,68.5418558 172.392698,68.4322679 171.69863,68.4322679 Z M171.69863,65.9117199 C172.703201,65.9117199 173.726022,66.0624034 174.767123,66.3637747 C175.808224,66.6651461 176.757987,67.1171964 177.616438,67.7199391 C178.47489,68.3226819 179.178079,69.0852313 179.726027,70.0076104 C180.273975,70.9299894 180.547945,72.0213027 180.547945,73.281583 C180.547945,74.5418632 180.273975,75.6331765 179.726027,76.5555556 C179.178079,77.4779346 178.47489,78.240484 177.616438,78.8432268 C176.757987,79.4459695 175.808224,79.8843213 174.767123,80.1582953 C173.726022,80.4322693 172.703201,80.5692542 171.69863,80.5692542 C170.694059,80.5692542 169.671238,80.4322693 168.630137,80.1582953 C167.589036,79.8843213 166.639274,79.4459695 165.780822,78.8432268 C164.92237,78.240484 164.219181,77.4779346 163.671233,76.5555556 C163.123285,75.6331765 162.849315,74.5418632 162.849315,73.281583 C162.849315,72.0213027 163.123285,70.9299894 163.671233,70.0076104 C164.219181,69.0852313 164.92237,68.3226819 165.780822,67.7199391 C166.639274,67.1171964 167.589036,66.6651461 168.630137,66.3637747 C169.671238,66.0624034 170.694059,65.9117199 171.69863,65.9117199 Z" id="THINKTODO" fill="#FFFFFF"></path>
                <g id="Group-57" transform="translate(75.342466, 0.000000)">
                    <path d="M0,42.2226221 C1.40213787,52.1958524 8.12046656,44.9983628 21.0082019,44.4577919 C21.0082019,48.7884333 20.8948376,48.3207483 19.9580901,51.8678656 L28.6692446,51.4852142 L28.8900067,43.2976901 C36.0433365,43.2109176 43.194584,43.6004741 50.297967,44.4638657 C50.9566535,37.6585689 46.3160361,37.8222969 40.7824459,36.4648244 C40.7010245,36.4448506 37.7740412,36.7270712 36.4863475,36.9784297 C35.2102624,37.2275222 33.8715446,37.5328335 33.2251386,37.687475 C33.0768645,37.722947 33.741893,37.3949502 33.7234564,37.3901303 C34.0068337,37.1477537 38.6405502,35.862104 38.9079298,35.7649958 C39.1753094,35.6678876 39.299879,35.6458706 40.0447259,35.3613861 L44.8564788,33.8042924 C43.6159703,26.8711927 37.6011611,26.717051 35.2031035,26.3988392 C34.8839015,26.3564824 34.20597,26.1822332 32.5242308,26.5434669 C31.7970394,26.6996659 28.2808155,28.0852882 26.933695,28.2785832 C26.301034,28.3693622 26.301034,28.3377793 26.3168086,28.2785832 C29.8001475,26.3135354 31.590514,25.3091529 31.6879082,25.2654359 C33.0609357,24.64913 35.03202,23.6486559 37.6011611,22.2640137 C37.6011611,20.4760523 35.2116413,15.7675894 31.2827037,15.6384678 C30.6495857,15.6176609 29.2541034,15.8112297 27.392896,16.487639 C25.7711014,17.0770397 23.5813923,17.9724491 22.9023091,18.0097987 C23.0446316,17.8263598 27.6110245,15.265701 27.7906127,15.1596489 C29.1585924,14.3518167 30.6637491,13.8340191 32.3864016,12.4790721 C32.6940966,8.99085343 30.9181346,7.6645496 28.5869901,6.63416955 C27.9347068,6.34585636 24.7590891,8.00701976 24.0533554,7.72416531 C24.1947072,7.59514081 26.8081116,5.54583155 26.933695,5.4271261 C28.3983964,4.04264303 28.781017,3.24262362 27.8577946,0.288893444 C24.2778681,-0.573590546 20.757607,3.01604352 18.7647813,4.97181708 C17.1001155,6.59960376 16.5392603,6.98832894 17.4640747,9.9280631 C18.0243776,11.7091141 18.3722429,11.9161678 19.2440826,11.7905422 C19.8112679,11.7088151 22.839885,9.94960886 24.0533554,9.9280631 C23.9248397,10.0307257 21.5569802,11.6697956 21.4290787,11.7719492 C18.9917514,13.7186167 16.6589595,15.5791617 14.1645758,17.5932377 C9.98799488,20.9459924 9.75529966,20.9642139 12.5416758,25.8475739 C14.7830511,25.1776772 16.7091992,24.0102497 19.0326232,23.0419323 C19.2535708,22.9498495 20.4075583,22.345654 21.3139546,21.9090079 C22.2312585,21.4671072 22.4126111,21.276836 22.9023091,21.1250565 C23.096442,21.0648859 23.0303786,21.2280995 23.1223409,21.2160311 C22.8312563,21.4975339 22.1373728,21.9140653 19.5142954,23.4111481 C16.8912181,24.9082309 13.5064659,26.3358748 10.7875118,27.8397905 C0.280427574,33.6645943 2.72671067,35.2012735 4.82096766,38.6755048 C7.61420661,37.4503005 9.70913582,36.5920672 11.1057553,36.1008049 C11.2727218,36.0420743 12.4543969,35.4652243 13.6260073,35.0636187 C14.4903302,34.7673453 17.5063646,34.2169984 18.5155401,33.8042924 C18.7967923,33.6892734 18.8798727,33.6892734 18.7647813,33.8042924 C17.9720614,34.2720064 17.3827459,34.6045211 16.9968349,34.8018364 C15.4582399,35.5885162 15.0148198,35.8531916 14.7977251,35.9742798 C13.9204253,36.4636083 11.4381111,37.4308288 7.35078237,38.8759412 C5.26249192,39.7384252 3.40093016,40.7284597 1.30070662,41.3054736 L0,42.2226221 Z" id="Shape" fill="#FFFBF7"></path>
                    <path d="M24.0545222,7.72396528 C24.0840397,7.7558336 24.2938832,7.78630349 24.716597,7.69642825 C25.0350308,7.62872448 25.4739662,7.47688409 25.9071934,7.32953388 C26.4032758,7.1608052 27.0044904,6.92393668 27.4746684,6.79151939 C27.9071326,6.66972348 28.1341504,6.57502376 28.519552,6.61167647 C29.0214175,6.74235475 25.6412741,9.08886342 24.0545222,9.92890851 C23.9154502,9.91385905 23.5030599,9.99233561 22.9875097,10.1747728 C22.2106738,10.4496709 21.1830812,10.9375164 20.2017502,11.3992863 C19.8443324,11.5674709 19.568438,11.7011683 19.3563848,11.7619288 C19.1749442,11.8139178 19.0419896,11.8089726 18.9960034,11.8089726 C18.9408028,11.7957751 18.9201734,11.8156269 18.9620932,11.7004877 C19.004013,11.5853485 23.2707686,8.03903161 24.0545222,7.72396528 Z" id="Rectangle-14" fill="#B7B7B7"></path>
                    <path d="M22.9051365,18.0119076 C23.0315069,17.9967216 23.1691494,18.0012975 23.9403146,17.7527121 C24.6419492,17.5265401 25.4861948,17.2024617 26.3092972,16.8946021 C26.8008172,16.710762 27.3188109,16.504081 27.850359,16.3294722 C28.4055196,16.1471069 29.0107696,15.9678956 29.5090109,15.8640537 C30.377865,15.6829699 30.9282423,15.5855237 31.6884811,15.6707837 C32.6788151,15.9075106 26.3541393,19.6425753 23.1200956,21.2162083 C23.051492,21.1764269 23.0590738,21.13689 23.0168374,21.1199266 C22.9254882,21.0700194 22.6109094,21.2532342 22.0736844,21.5171809 C21.5927496,21.7534713 20.9458007,22.0808678 20.465325,22.3177338 C19.4493954,22.8185693 17.4288511,23.7407568 15.3947844,24.7301186 C14.7032418,25.0350617 13.9397128,25.3799535 13.5752197,25.5037432 C13.2107266,25.6275328 13.0009016,25.7025501 12.832815,25.7550782 C12.7054292,25.7793507 12.5043668,25.8960309 12.5392578,25.8399276 C12.5741489,25.7838242 21.3349466,18.5913691 22.9051365,18.0119076 Z" id="Rectangle-14-Copy" fill="#B7B7B7"></path>
                    <path d="M26.3509309,28.315255 C26.41453,28.3738664 26.0475873,28.378297 26.9583768,28.2130009 C27.6444821,28.0884819 28.5902233,27.8092211 29.5236652,27.5382186 C30.5925367,27.2278973 31.1626079,26.8894839 32.1756649,26.6459456 C33.1074631,26.4219418 33.5966011,26.2477726 34.4269971,26.3151833 C35.5083288,26.5555233 22.2791942,32.1158762 18.8603394,33.6608646 C18.4616933,33.905696 14.6559212,34.7417734 13.631357,35.1220592 C11.9100122,35.760968 12.2542445,35.5996039 10.1398444,36.4488788 C9.36974311,36.7581995 7.3179629,37.5942827 6.95506537,37.7490921 C6.59216783,37.9039015 5.2126903,38.5094861 5.01132866,38.5909094 C4.94537456,38.6248419 4.8975059,38.6415387 4.82455484,38.6729682 C4.81049793,38.6523409 4.88056929,38.5785204 4.99208233,38.4854184 C5.44245764,38.1094012 24.6622361,28.8947165 26.3509309,28.315255 Z" id="Rectangle-14-Copy-2" fill="#B7B7B7"></path>
                </g>
            </g>
        </g>
    </g>
</svg>